<svg width="285" height="285" viewBox="0 0 285 285" fill="none" xmlns="http://www.w3.org/2000/svg">
<rect width="285" height="285" fill="url(#paint0_linear_108_3)"/>
<circle cx="142.5" cy="142.5" r="107.5" fill="white"/>
<path d="M193.273 78.6316L232.599 72.0632C221.15 72.9053 195.463 75.3979 184.313 78.6316C173.162 81.8653 151.458 89.0737 142 92.2737V114C142 106.926 159.921 97.7305 165.894 92.2737C170.872 87.7263 186.636 81.6632 193.273 78.6316Z" fill="#0067B9"/>
<path d="M142 59V92.5C145.181 91.4272 149.756 89.8991 154.847 88.2229C152.376 81.5 148.331 75 146.941 70.5C144.965 64.1 142.824 60.1667 142 59Z" fill="#7DC2F8"/>
<path d="M142 59V92.5C145.181 91.4272 149.756 89.8991 154.847 88.2229C152.376 81.5 148.331 75 146.941 70.5C144.965 64.1 142.824 60.1667 142 59Z" fill="#023A67"/>
<path d="M190.894 119H204C201.984 121.833 197.85 127.5 197.447 127.5C184.946 126.7 164.179 134.5 142 262C159.642 148 184.341 123 190.894 119Z" fill="#023A67"/>
<path d="M187.5 140.593C173.5 172.701 159 180.226 142 262C153.276 196.432 164.184 162.414 173.809 144.937C174.809 144.603 178.7 143.403 187.5 140.593Z" fill="#1382DA"/>
<path d="M142.003 261.479C159.683 147.497 184.433 123 191 119H166C161.173 128.396 154.727 136.727 149.756 159.26C145.182 184.929 142.116 217.434 142.003 261.479Z" fill="#1382DA"/>
<path d="M161 115C150.73 146.5 142 188.5 142 264" stroke="#023A67"/>
<path d="M204 119L180.187 107C177.349 107.4 169.547 115.167 166 119H204Z" fill="#026EC3"/>
<path d="M162 111.99L160.537 115.479C150.78 146.878 142 188.743 142 264V113.984L160.049 109C158.878 110.595 158.585 113.984 158.585 115.479L162 111.99Z" fill="#1382DA"/>
<path d="M260.5 74.5L267 67C262.667 68.3333 252.6 72.3 247 77.5C240 84 236 84 230 87C219.5 92.2501 207 89.5 160 109C158.8 110.6 158.5 114 158.5 115.5L162 112L160.5 115C165.667 112.5 177.4 107.1 181 105.5C184.6 103.9 214.5 96.8333 229 93.5C233.167 92.3333 242.2 89.4 245 87C247.8 84.6 256.5 77.6667 260.5 74.5Z" fill="#023A67"/>
<path d="M255.5 66L267 67.0105C262.667 68.3579 252.6 72.3663 247 77.6211C240 84.1895 236 84.1894 230 87.2211C219.5 92.5264 207.5 89.2421 160.5 108.947L142 114C142 106.926 160 97.7305 166 92.2737C171 87.7263 186.833 81.6632 193.5 78.6316L233 72.0632L255.5 66Z" fill="#026EC4"/>
<path d="M90.7269 78.6316L51.4009 72.0632C62.8502 72.9053 88.5366 75.3979 99.6872 78.6316C110.838 81.8653 132.542 89.0737 142 92.2737V114C142 106.926 124.079 97.7305 118.106 92.2737C113.128 87.7263 97.3642 81.6632 90.7269 78.6316Z" fill="#0067B9"/>
<path d="M142 59V92.5C138.819 91.4272 134.244 89.8991 129.153 88.2229C131.624 81.5 135.669 75 137.059 70.5C139.035 64.1 141.176 60.1667 142 59Z" fill="#7DC2F8"/>
<path d="M142 59V92.5C138.819 91.4272 134.244 89.8991 129.153 88.2229C131.624 81.5 135.669 75 137.059 70.5C139.035 64.1 141.176 60.1667 142 59Z" fill="#7DC2F8"/>
<path d="M93.1057 119H80C82.0163 121.833 86.1496 127.5 86.5528 127.5C99.0537 126.7 119.821 134.5 142 262C124.358 148 99.6585 123 93.1057 119Z" fill="#0067B9"/>
<path d="M96.5 140.593C110.5 172.701 125 180.226 142 262C130.724 196.432 119.816 162.414 110.191 144.937C109.191 144.603 105.3 143.403 96.5 140.593Z" fill="#3D94D9"/>
<path d="M141.997 261.479C124.317 147.497 99.5666 123 93 119H118C122.827 128.396 129.273 136.727 134.244 159.26C138.818 184.929 141.884 217.434 141.997 261.479Z" fill="#3D94D9"/>
<path d="M123 115C133.27 146.5 142 188.5 142 264" stroke="#0067B9"/>
<path d="M80 119L103.813 107C106.651 107.4 114.453 115.167 118 119H80Z" fill="#51A9EE"/>
<path d="M122 111.99L123.463 115.479C133.22 146.878 142 188.743 142 264V113.984L123.951 109C125.122 110.595 125.415 113.984 125.415 115.479L122 111.99Z" fill="#3D94D9"/>
<path d="M23.5 74.5L17 67C21.3333 68.3333 31.4 72.3 37 77.5C44 84 48 84 54 87C64.5 92.2501 77 89.5 124 109C125.2 110.6 125.5 114 125.5 115.5L122 112L123.5 115C118.333 112.5 106.6 107.1 103 105.5C99.4 103.9 69.5 96.8333 55 93.5C50.8333 92.3333 41.8 89.4 39 87C36.2 84.6 27.5 77.6667 23.5 74.5Z" fill="#0067B9"/>
<path d="M28.5 66L17 67.0105C21.3333 68.3579 31.4 72.3663 37 77.6211C44 84.1895 48 84.1894 54 87.2211C64.5 92.5264 76.5 89.2421 123.5 108.947L142 114C142 106.926 124 97.7305 118 92.2737C113 87.7263 97.1667 81.6632 90.5 78.6316L51 72.0632L28.5 66Z" fill="#51A9EE"/>
<defs>
<!-- <linearGradient id="paint0_linear_108_3" x1="0" y1="0" x2="285" y2="285" gradientUnits="userSpaceOnUse">
<stop stop-color="#BB1900"/>
<stop offset="0.703125" stop-color="#FD6F01"/>
<stop offset="0.984375" stop-color="#FFB000"/>
</linearGradient> -->
</defs>
</svg>
